SplineFontDB: 1.0
FontName: post_ss
FullName: post_ss
FamilyName: post_ss
Weight: Medium
Copyright: Created by Andrey V. Panov with FontForge 1.0 (http://fontforge.sf.net). This font contains manually edited glyph outlines.
Comments: 2006-5-25: Created.
Version: 1
ItalicAngle: 0
UnderlinePosition: -100
UnderlineWidth: 50
Ascent: 800
Descent: 200
NeedsXUIDChange: 1
XUID: [1021 305 2130962764 1023189]
OS2Version: 0
OS2_WeightWidthSlopeOnly: 0
OS2_UseTypoMetrics: 0
CreationTime: 1148898789
ModificationTime: 1173782251
OS2TypoAscent: 0
OS2TypoAOffset: 1
OS2TypoDescent: 0
OS2TypoDOffset: 1
OS2TypoLinegap: 0
OS2WinAscent: 0
OS2WinAOffset: 1
OS2WinDescent: 0
OS2WinDOffset: 1
HheadAscent: 0
HheadAOffset: 1
HheadDescent: 0
HheadDOffset: 1
OS2Vendor: 'PfEd'
Encoding: UnicodeBmp
UnicodeInterp: none
NameList: Adobe Glyph List
DisplaySize: -48
AntiAlias: 1
FitToEm: 1
WinInfo: 896 16 14
BeginChars: 65536 52
StartChar: two
Encoding: 50 50 0
Width: 500
Flags: HW
TeX: 0 0 0 0
HStem: -0 70<49 449> 613 65<161 301.5>
VStem: 366 83<407.5 520.5>
Fore
235 678 m 0
 368 678 449 577 449 464 c 0
 449 367 386.371 312.72 282 221 c 0
 249 192 201 146 121 70 c 1
 449 71 l 1
 449 -0 l 1
 49 -0 l 1
 49 65 l 1
 179 194 l 2
 275 283 366 354 366 461 c 0
 366 545 308 613 222 613 c 0
 100 613 88 461 84 459 c 1
 41 514 l 1
 66 598 119 678 235 678 c 0
EndSplineSet
EndChar
StartChar: six
Encoding: 54 54 1
Width: 500
Flags: HW
TeX: 0 0 0 0
HStem: -22 62<204.5 289> 401 61<217.5 320.5> 619 59<232 334>
VStem: 42 86<179.5 422> 375 82<185 257>
Fore
295 462 m 0
 346 462 376 439 404 401 c 0
 444 344 457 290 457 224 c 0
 457 146 437.814 93.1746 388 40 c 0
 347.85 -2.85926 306 -22 252 -22 c 0
 168 -22 42 36 42 323 c 0
 42 521 155 678 309 678 c 0
 359 678 390 667 416 658 c 1
 416 598 l 1
 389 607 359 619 309 619 c 0
 188 619 131 483 126 380 c 1
 168 433 232 462 295 462 c 0
251 40 m 0
 327 40 360 107 370 151 c 0
 374 173 375 195 375 218 c 0
 375 278 370 312 347 349 c 0
 317 396 279 401 256 401 c 0
 179 401 128 330 128 247 c 0
 128 238 128 229 129 220 c 0
 137 146 158 40 251 40 c 0
EndSplineSet
EndChar
StartChar: nine
Encoding: 57 57 2
Width: 500
Flags: HW
TeX: 0 0 0 0
HStem: -22 62<174 273.5> 193 62<178 281.5> 618 60<214 298.5>
VStem: 42 82<400.5 471.5> 371 86<229 477.5>
Fore
457 333 m 0
 457 125 342 -22 205 -22 c 0
 143 -22 108 -3 72 24 c 1
 103 78 l 1
 126 62 151 40 207 40 c 0
 291 40 362 125 373 276 c 1
 329 224 272 193 204 193 c 0
 152 193 123.17 216.122 96 254 c 0
 54.2615 312.188 42 366 42 435 c 0
 42 508 61 563 114 618 c 0
 156 660 197 678 252 678 c 0
 334 678 457 622 457 333 c 0
371 410 m 0
 371 476.478 352.101 618 253 618 c 0
 175 618 140 550 130 507 c 0
 124 483 124 460 124 435 c 0
 124 381 127 343 156 301 c 0
 175 274 201 255 243 255 c 0
 320 255 371 326 371 410 c 0
EndSplineSet
EndChar
StartChar: E
Encoding: 69 69 3
Width: 597
Flags: HW
TeX: 0 0 0 0
HStem: 0 70<94 555> 329 61<184 514> 625 66<94 541>
VStem: 94 90<0 691>
Fore
94 691 m 1
 541 691 l 1
 541 625 l 1
 184 627 l 1
 184 390 l 1
 514 390 l 1
 514 329 l 1
 184 329 l 1
 184 70 l 1
 555 72 l 5
 555 0 l 1
 94 0 l 1
 94 691 l 1
EndSplineSet
EndChar
StartChar: F
Encoding: 70 70 4
Width: 569
Flags: HW
TeX: 0 0 0 0
HStem: 0 21G<94 184> 315 61<184 485> 625 66<94 527>
VStem: 94 90<0 691>
Fore
94 691 m 1
 527 691 l 1
 527 625 l 1
 184 627 l 5
 184 376 l 1
 485 376 l 1
 485 315 l 1
 184 315 l 1
 184 0 l 1
 94 0 l 1
 94 691 l 1
EndSplineSet
EndChar
StartChar: L
Encoding: 76 76 5
Width: 542
Flags: HW
TeX: 0 0 0 0
HStem: 0 66<94 499> 674 20G<94 184>
VStem: 94 90<0 694>
Fore
499 0 m 1
 94 0 l 1
 94 694 l 1
 184 694 l 1
 184 65 l 1
 499 66 l 1
 499 0 l 1
EndSplineSet
EndChar
StartChar: M
Encoding: 77 77 6
Width: 875
Flags: HW
TeX: 0 0 0 0
HStem: -0 21G<100 178 697 775> 674 20G<100 214 660 775>
VStem: 100 78<-0 694> 697 78<-0 694>
Fore
100 694 m 1
 214 694 l 1
 368 293 l 2
 409 181 433 116 437 92 c 1
 438 92 l 1
 443 126 499 268 506 292 c 2
 660 694 l 1
 775 694 l 1
 775 -0 l 1
 697 -0 l 1
 697 592 l 2
 697 612 696 624 696 624 c 1
 696 624 693 606 686 587 c 2
 626 423 l 25
 472 22 l 1
 400 22 l 1
 250 411 l 2
 212 517 187 580 178 624 c 1
 178 -0 l 1
 100 -0 l 1
 100 694 l 1
EndSplineSet
EndChar
StartChar: T
Encoding: 84 84 7
Width: 680
Flags: HW
TeX: 0 0 0 0
HStem: 0 21G<295 384> 623 66<35 643>
VStem: 295 89<0 624>
Fore
35 689 m 5
 643 689 l 1
 643 623 l 1
 384 624 l 1
 384 0 l 1
 295 0 l 1
 295 624 l 1
 35 623 l 1
 35 689 l 5
EndSplineSet
EndChar
StartChar: U
Encoding: 85 85 8
Width: 687
Flags: HW
TeX: 0 0 0 0
HStem: -22 56<281 385> 674 20G<94 184 514 593>
VStem: 94 90<257 694> 514 79<212 694>
Fore
94 694 m 1
 184 694 l 1
 184 279 l 2
 184 252 182 224 186 197 c 0
 195 117 248 34 346 34 c 0
 421 34 505 87 514 212 c 2
 514 694 l 1
 593 694 l 1
 593 266 l 2
 593 242 603 136 518 50 c 0
 484 16 424 -22 346 -22 c 0
 216 -22 113 75 96 196 c 0
 94 217 94 237 94 257 c 2
 94 694 l 1
EndSplineSet
EndChar
StartChar: W
Encoding: 87 87 9
Width: 944
Flags: HW
TeX: 0 0 0 0
HStem: 0 21G<218 298 639 726> 674 20G<14 101 435 517 857 929>
Fore
101 694 m 1
 217 287 l 2
 247 180 263 114 268 70 c 1
 272 115 302 225 320 290 c 2
 435 694 l 1
 517 694 l 1
 517 694 583 476 635 283 c 2
 664 175 l 26
 691 71 685 80 687 70 c 1
 690 104 724 229 740 289 c 2
 857 694 l 1
 929 694 l 1
 726 0 l 1
 639 0 l 1
 532 369 l 2
 476 577 483 549 469 624 c 1
 465 585 429 454 410 388 c 2
 298 0 l 1
 218 0 l 1
 14 694 l 1
 101 694 l 1
EndSplineSet
EndChar
StartChar: Z
Encoding: 90 90 10
Width: 611
Flags: HW
TeX: 0 0 0 0
HStem: -0 65<55 560> 631 63<69 555>
Fore
69 694 m 5
 555 694 l 1
 555 670 l 2
 555 651 554 652 542 633 c 2
 170 65 l 1
 560 66 l 1
 560 -0 l 1
 55 -0 l 1
 55 25 l 2
 55 44 55 44 68 63 c 2
 440 632 l 1
 69 631 l 1
 69 694 l 5
EndSplineSet
EndChar
StartChar: underscore
Encoding: 95 95 11
Width: 778
Flags: MW
TeX: 0 0 0 0
HStem: -248 40<111.5 660 118 660 660 665>
Fore
84 -228 m 0
 84 -206 107 -208 118 -208 c 2
 660 -208 l 2
 671 -208 693 -206 693 -228 c 0
 693 -236 689 -248 665 -248 c 2
 118 -248 l 2
 105 -248 84 -248 84 -228 c 0
EndSplineSet
EndChar
StartChar: z
Encoding: 122 122 12
Width: 435
Flags: HW
TeX: 0 0 0 0
HStem: 0 62<27 401> 385 60<41 398>
Fore
41 445 m 1
 398 445 l 1
 398 405 l 1
 133 62 l 1
 401 63 l 5
 401 0 l 1
 27 0 l 1
 27 41 l 1
 293 386 l 1
 41 385 l 1
 41 445 l 1
EndSplineSet
EndChar
StartChar: Gamma
Encoding: 915 915 13
Width: 542
Flags: HW
TeX: 0 0 0 0
HStem: 0 21G<94 184> 625 66<94 499>
VStem: 94 90<0 691>
Fore
94 691 m 1
 499 691 l 1
 499 625 l 1
 184 627 l 1
 184 0 l 1
 94 0 l 1
 94 691 l 1
EndSplineSet
EndChar
StartChar: Delta
Encoding: 916 916 14
Width: 833
Flags: HW
TeX: 0 0 0 0
HStem: -0 84<41 790> 674 20G<370 461>
Fore
370 694 m 1
 461 694 l 1
 790 -0 l 1
 41 -0 l 1
 370 694 l 1
405 624 m 1
 405 624 401 609 393 591 c 2
 331 452 l 18
 250 269 158 84 158 84 c 1
 651 84 l 1
 651 84 559 271 478 454 c 10
 416 593 l 2
 408 611 405 624 405 624 c 1
EndSplineSet
EndChar
StartChar: Sigma
Encoding: 931 931 15
Width: 722
Flags: HW
TeX: 0 0 0 0
HStem: -0 70<55 666> 628 66<55 666>
Fore
55 694 m 1
 666 694 l 1
 666 628 l 1
 169 630 l 1
 391 346 l 1
 199 70 l 1
 666 71 l 5
 666 -0 l 1
 55 -0 l 1
 287 334 l 1
 287 335 l 1
 55 629 l 1
 55 694 l 1
EndSplineSet
EndChar
StartChar: Omega
Encoding: 937 937 16
Width: 722
Flags: HW
TeX: 0 0 0 0
HStem: 0 70<44 289 432 677> 655 61<272.5 447>
VStem: 55 89<380 530> 576 90<380 530.5>
Fore
55 462 m 0
 55 598 185 716 360 716 c 0
 534 716 666 599 666 462 c 0
 666 317 544 215 503 70 c 1
 677 71 l 1
 677 0 l 1
 432 0 l 1
 434 170 576 299 576 461 c 0
 576 577 477 655 361 655 c 0
 238 655 144 572 144 461 c 0
 144 299 287 169 289 0 c 1
 44 0 l 1
 44 71 l 1
 218 70 l 1
 177 212 55 319 55 462 c 0
EndSplineSet
EndChar
StartChar: alpha
Encoding: 945 945 17
Width: 633
Flags: MW
TeX: 0 0 0 0
HStem: -11 100<472 611> -11 75<180 267.5> 380 75<171.5 261.5>
VStem: 41 78<152.5 282> 352 84<179 181>
Fore
537 455 m 1
 527 421 465 229 436 179 c 1
 455 121 480 65 509 65 c 0
 517 65 529 67 533 89 c 1
 611 89 l 1
 608 23 557 -11 509 -11 c 0xb0
 435 -11 399 59 385 90 c 1
 362 56 308 -11 227 -11 c 0x70
 133 -11 41 83 41 222 c 0
 41 339 114 455 229 455 c 0
 333 455 381 343 402 287 c 1
 425 351 l 18
 459 445 459 455 459 455 c 1
 537 455 l 1
226 64 m 0x70
 299 64 352 170 352 181 c 1
 344 214 l 2
 323 287 297 380 226 380 c 0
 180 380 119 341 119 223 c 0
 119 99 183 64 226 64 c 0x70
EndSplineSet
EndChar
StartChar: mu
Encoding: 956 956 18
Width: 555
Flags: MW
TeX: 0 0 0 0
HStem: -11 78<204.5 260> 425 20G<41 119 346 424>
VStem: 41 78<-195 445> 346 78<123 445> 487 54<59.5 107>
Fore
353 60 m 1
 305 -8 256 -11 232 -11 c 0
 177 -11 146 17 119 49 c 1
 119 -195 l 1
 41 -195 l 1
 41 445 l 1
 119 445 l 1
 119 195 l 2
 119 185 113 139 150 102 c 0
 173 78 204 67 232 67 c 0
 288 67 337 107 344 162 c 0
 346 173 346 184 346 195 c 2
 346 445 l 1
 424 445 l 1
 424 127 l 2
 424 119 422 102 427 88 c 0
 430 80 439 63 455 63 c 0
 465 63 487 73 487 98 c 0
 486 107 l 1
 541 107 l 1
 541 100 542 94 542 87 c 0
 542 32 495 -11 443 -11 c 0
 414 -11 373 5 353 60 c 1
EndSplineSet
EndChar
StartChar: afii10018
Encoding: 1041 1041 19
Width: 667
Flags: HW
TeX: 0 0 0 0
HStem: 0 56<96 443.5> 330 62<180 348> 628 66<96 554>
VStem: 96 84<0 694> 528 82<156.5 228.5>
Fore
96 694 m 1
 554 694 l 1
 554 628 l 1
 180 630 l 1
 180 392 l 1
 313 392 l 2
 383 392 436 393 501 358 c 0
 569 320 610 260 610 194 c 0
 610 119 543 0 344 0 c 2
 96 0 l 1
 96 694 l 1
180 56 m 1
 296 56 l 2
 340 56 390 53 446 81 c 0
 463 90 528 126 528 194 c 0
 528 263 456 319 363 329 c 0
 340 331 317 330 293 330 c 2
 181 330 l 1
 181 330 180 313 180 293 c 2
 180 56 l 1
EndSplineSet
EndChar
StartChar: afii10020
Encoding: 1043 1043 20
Width: 542
Flags: HW
TeX: 0 0 0 0
HStem: 0 21G<94 184> 628 66<94 499>
VStem: 94 90<0 694>
Fore
94 694 m 1
 499 694 l 1
 499 628 l 1
 184 630 l 5
 184 0 l 1
 94 0 l 1
 94 694 l 1
EndSplineSet
EndChar
StartChar: afii10022
Encoding: 1045 1045 21
Width: 597
Flags: HW
TeX: 0 0 0 0
HStem: 0 70<94 555> 330 62<184 514> 628 66<94 541>
VStem: 94 90<0 694>
Fore
94 694 m 1
 541 694 l 1
 541 628 l 1
 184 630 l 1
 184 392 l 1
 514 392 l 1
 514 330 l 1
 184 330 l 1
 184 70 l 1
 555 72 l 5
 555 0 l 1
 94 0 l 1
 94 694 l 1
EndSplineSet
EndChar
StartChar: afii10026
Encoding: 1048 1048 22
Width: 694
Flags: HW
TeX: 0 0 0 0
HStem: 0 21G<94 216 514 599> 674 20G<94 180 477 599>
VStem: 94 86<0 694> 514 85<0 694>
Fore
94 694 m 1
 180 694 l 1
 180 70 l 1
 180 70 193 101 215 146 c 2
 477 694 l 1
 599 694 l 1
 599 0 l 1
 514 0 l 1
 514 592 l 2
 514 607 513 624 513 624 c 1
 513 624 500 593 478 548 c 2
 216 0 l 1
 94 0 l 1
 94 694 l 1
EndSplineSet
EndChar
StartChar: afii10036
Encoding: 1058 1058 23
Width: 680
Flags: HW
TeX: 0 0 0 0
HStem: -0 21G<294 384> 628 66<35 643>
VStem: 294 90<-0 630>
Fore
35 694 m 1
 643 694 l 1
 643 628 l 1
 384 630 l 1
 384 -0 l 1
 294 -0 l 1
 294 630 l 1
 35 628 l 1
 35 694 l 1
EndSplineSet
EndChar
StartChar: afii10044
Encoding: 1066 1066 24
Width: 868
Flags: HW
TeX: 0 0 0 0
HStem: -0 56<297 645> 330 62<381 549> 630 64<35 381>
VStem: 297 84<-0 694> 729 82<156.5 231>
Fore
811 194 m 0
 811 119 745 -0 545 -0 c 2
 297 -0 l 1
 297 630 l 1
 35 628 l 1
 35 694 l 1
 381 694 l 1
 381 392 l 1
 514 392 l 2
 584 392 637 393 702 358 c 0
 770 320 811 260 811 194 c 0
381 56 m 1
 498 56 l 2
 541 56 591 53 647 81 c 0
 664 90 729 126 729 194 c 0
 729 268 649 320 565 329 c 0
 541 331 518 330 495 330 c 2
 382 330 l 1
 382 330 381 312 381 292 c 2
 381 56 l 1
EndSplineSet
EndChar
StartChar: afii10068
Encoding: 1075 1075 25
Width: 404
Flags: HW
TeX: 0 0 0 0
HStem: 0 21G<80 158> 385 60<80 379>
VStem: 80 78<0 445>
Fore
80 445 m 1
 379 445 l 1
 379 385 l 1
 158 386 l 1
 158 0 l 1
 80 0 l 1
 80 445 l 1
EndSplineSet
EndChar
StartChar: afii10084
Encoding: 1090 1090 26
Width: 458
Flags: HW
TeX: 0 0 0 0
HStem: -0 21G<190 268> 382 63<25 433>
VStem: 190 78<-0 383>
Fore
25 445 m 1
 433 445 l 1
 433 382 l 1
 268 383 l 1
 268 -0 l 1
 190 -0 l 1
 190 383 l 1
 25 382 l 5
 25 445 l 1
EndSplineSet
EndChar
StartChar: afii10092
Encoding: 1098 1098 27
Width: 590
Flags: HW
TeX: 0 0 0 0
HStem: 0 64<192 363> 216 56<267 350> 382 63<25 267>
VStem: 192 75<0 445> 486 70<112.5 165.5>
Fore
25 445 m 1
 267 445 l 1
 267 272 l 1
 350 272 l 2
 402 272 441 272 486 246 c 0
 518 228 556 193 556 138 c 0
 556 87 528 10 408 1 c 0
 390 -0 372 0 354 0 c 2
 192 0 l 1
 192 383 l 1
 25 382 l 1
 25 445 l 1
267 64 m 1
 341 64 l 2
 359 64 470 56 485 128 c 0
 486 132 486 136 486 139 c 0
 486 184 431 211 381 215 c 0
 367 217 353 216 340 216 c 2
 267 216 l 1
 267 64 l 1
EndSplineSet
EndChar
StartChar: afii10146
Encoding: 1122 1122 28
Width: 778
Flags: HW
TeX: 0 0 0 0
HStem: 0 56<208 555> 330 62<292 424> 573 65<8 208 292 630>
VStem: 208 84<0 573 638 750> 640 82<156.5 231>
Fore
722 195 m 0
 722 118 654 0 456 0 c 2
 208 0 l 1
 208 573 l 1
 8 572 l 1
 8 638 l 1
 208 638 l 1
 208 750 l 1
 292 750 l 1
 292 638 l 1
 630 638 l 1
 630 572 l 1
 292 573 l 1
 292 392 l 1
 424 392 l 2
 494 392 547.866 392.757 613 357 c 0
 680.861 319.746 722 260 722 195 c 0
292 56 m 1
 408 56 l 2
 467 56 506 55 558 82 c 0
 575 90 640 127 640 194 c 0
 640 268 560 320 475 329 c 0
 452 331 428 330 405 330 c 2
 292 330 l 1
 292 56 l 1
EndSplineSet
EndChar
StartChar: uni0466
Encoding: 1126 1126 29
Width: 844
Flags: HW
TeX: 0 0 0 0
HStem: 0 21G<27 105 375 448 718 815> 256 56<262 561.814> 674 20G<375 467>
VStem: 375 73<0 256>
Fore
448 256 m 1
 448 0 l 1
 375 0 l 1
 375 256 l 1
 287 256 l 2
 267 256 233 257 233 257 c 1
 105 0 l 1
 27 0 l 1
 375 694 l 1
 467 694 l 1
 815 0 l 1
 718 0 l 1
 590 257 l 1
 590 257 557 256 537 256 c 2
 448 256 l 1
412 624 m 1
 412 624 391 575 347 485 c 2
 262 312 l 1
 262 312 l 1
 562 312 l 1
 432 577 l 2
 419 604 412 624 412 624 c 1
EndSplineSet
EndChar
StartChar: uni0468
Encoding: 1128 1128 30
Width: 1177
Flags: HW
TeX: 0 0 0 0
HStem: 0 21G<94 184 333 413 709 782 1078 1177> 254 61<184 504 549 924> 674 20G<94 184 708 802>
VStem: 94 90<0 694> 709 73<0 254>
Fore
94 694 m 1
 184 694 l 1
 184 315 l 1
 504 315 l 1
 708 694 l 1
 802 694 l 1
 1177 0 l 1
 1078 0 l 1
 942 254 l 1
 782 254 l 1
 782 0 l 1
 709 0 l 1
 709 254 l 1
 549 254 l 1
 413 0 l 1
 333 0 l 1
 470 254 l 1
 184 254 l 1
 184 0 l 1
 94 0 l 1
 94 694 l 1
745 624 m 1
 745 624 738.793 609.377 692 521 c 2
 583 315 l 1
 908 315 l 1
 853 418 765 581 745 624 c 1
EndSplineSet
EndChar
StartChar: uni0492
Encoding: 1170 1170 31
Width: 542
Flags: HW
TeX: 0 0 0 0
HStem: 0 21G<93 183> 332 58<18 93 183 298> 628 66<93 498>
VStem: 93 90<0 332 390 694>
Fore
93 694 m 1
 498 694 l 1
 498 628 l 1
 183 630 l 5
 183 390 l 1
 298 390 l 1
 298 332 l 1
 183 332 l 1
 183 0 l 1
 93 0 l 1
 93 332 l 1
 18 332 l 1
 18 390 l 1
 93 390 l 1
 93 694 l 1
EndSplineSet
EndChar
StartChar: uni0493
Encoding: 1171 1171 32
Width: 404
Flags: HW
TeX: 0 0 0 0
HStem: -0 21G<79 158> 216 56<18 79 158 258> 385 60<79 378>
VStem: 79 79<-0 216 272 445>
Fore
79 445 m 1
 378 445 l 1
 378 385 l 1
 158 386 l 5
 158 272 l 1
 258 272 l 1
 258 216 l 1
 158 216 l 1
 158 -0 l 1
 79 -0 l 1
 79 216 l 1
 18 216 l 1
 18 272 l 1
 79 272 l 1
 79 445 l 1
EndSplineSet
EndChar
StartChar: uni0494
Encoding: 1172 1172 33
Width: 708
Flags: HW
TeX: 0 0 0 0
HStem: -217 62<369 477.5> 0 21G<94 184> 330 62<184 296> 628 66<94 541>
VStem: 94 90<0 694> 571 81<5 168>
Fore
403 -155 m 0
 507 -155 571 -37 571 81 c 0
 571 152 549 222 498 268 c 0
 426 332 331 330 261 330 c 2
 184 330 l 1
 184 0 l 1
 94 0 l 1
 94 694 l 1
 541 694 l 1
 541 628 l 1
 184 630 l 5
 184 392 l 1
 277 392 l 2
 311 392 345 392 379 389 c 0
 562 370 652 251 652 85 c 0
 652 -75 552 -217 403 -217 c 0
 335 -217 311 -206 278 -195 c 1
 296 -127 l 1
 340 -149 355 -155 403 -155 c 0
EndSplineSet
EndChar
StartChar: uni0495
Encoding: 1173 1173 34
Width: 536
Flags: HW
TeX: 0 0 0 0
HStem: -205 63<264.5 325.5> 0 21G<80 158> 216 56<158 271> 385 60<80 379>
VStem: 80 78<0 445> 410 70<-28 134.5>
Fore
283 -142 m 0
 368 -142 410 -52 410 38 c 0
 410 231 255 216 225 216 c 2
 158 216 l 1
 158 0 l 1
 80 0 l 1
 80 445 l 1
 379 445 l 1
 379 385 l 1
 158 386 l 5
 158 272 l 1
 240 272 l 2
 302 272 373 271 426 210 c 0
 466 165 480 101 480 41 c 0
 480 -97 402 -187 322 -203 c 0
 309 -205 296 -205 282 -205 c 0
 247 -205 229 -202 195 -195 c 1
 212 -129 l 1
 236 -136 260 -142 283 -142 c 0
EndSplineSet
EndChar
StartChar: uni04A0
Encoding: 1184 1184 35
Width: 896
Flags: HW
TeX: 0 0 0 0
HStem: -0 21G<296 382 759 852> 628 66<35 382>
VStem: 296 86<-0 694>
Fore
35 628 m 5
 35 694 l 1
 382 694 l 1
 382 323 l 1
 745 694 l 1
 839 694 l 1
 570 420 l 1
 570 419 l 1
 852 -0 l 1
 759 -0 l 1
 515 363 l 1
 382 228 l 1
 382 -0 l 1
 296 -0 l 1
 296 630 l 1
 35 628 l 5
EndSplineSet
EndChar
StartChar: uni04A1
Encoding: 1185 1185 36
Width: 598
Flags: HW
TeX: 0 0 0 0
HStem: -0 21G<192 264 500 581> 383 62<25 264>
VStem: 192 72<-0 445>
Fore
264 -0 m 1
 192 -0 l 1
 192 383 l 1
 25 382 l 5
 25 445 l 1
 264 445 l 1
 264 236 l 1
 470 445 l 1
 560 445 l 1
 390 273 l 1
 581 -0 l 1
 500 -0 l 1
 343 224 l 1
 264 145 l 1
 264 -0 l 1
EndSplineSet
EndChar
StartChar: uni04A4
Encoding: 1188 1188 37
Width: 896
Flags: HW
TeX: 0 0 0 0
HStem: 0 21G<94 184 510 599> 330 62<184 510> 628 66<510 859>
VStem: 94 90<0 694> 510 89<0 694>
Fore
599 0 m 1
 510 0 l 1
 510 330 l 1
 184 330 l 1
 184 0 l 1
 94 0 l 1
 94 694 l 1
 184 694 l 1
 184 392 l 1
 510 392 l 1
 510 694 l 1
 859 694 l 1
 859 628 l 1
 599 630 l 5
 599 0 l 1
EndSplineSet
EndChar
StartChar: uni04A5
Encoding: 1189 1189 38
Width: 647
Flags: HW
TeX: 0 0 0 0
HStem: 0 21G<81 156 379 454> 216 56<156 379> 382 63<379 621>
VStem: 81 75<0 445> 379 75<0 445>
Fore
81 445 m 1
 156 445 l 1
 156 272 l 1
 379 272 l 1
 379 445 l 1
 621 445 l 1
 621 382 l 1
 454 383 l 5
 454 0 l 1
 379 0 l 1
 379 216 l 1
 156 216 l 1
 156 0 l 1
 81 0 l 1
 81 445 l 1
EndSplineSet
EndChar
StartChar: uni04AC
Encoding: 1196 1196 39
Width: 680
Flags: MW
TeX: 0 0 0 0
HStem: -195 21G<392 456> 0 21<294 392> 628 66<35 643>
VStem: 294 90<-0 630> 392 64<-195 65>
Fore
35 628 m 1
 35 694 l 1
 643 694 l 1
 643 628 l 1
 384 630 l 1
 384 65 l 1
 456 65 l 1
 456 -195 l 1
 392 -195 l 1
 392 -0 l 1
 294 -0 l 1
 294 630 l 1
 35 628 l 1
EndSplineSet
EndChar
StartChar: uni04AD
Encoding: 1197 1197 40
Width: 458
Flags: MW
TeX: 0 0 0 0
HStem: -162 21<271 335 271 271> 0 21<190 271> 382 63<25 433>
VStem: 190 78<-0 383> 271 64<-162 61>
Fore
25 445 m 1
 433 445 l 1
 433 382 l 1
 268 383 l 1
 268 61 l 1
 335 61 l 1
 335 -162 l 1
 271 -162 l 1
 271 -0 l 1
 190 -0 l 1
 190 383 l 1
 25 382 l 1
 25 445 l 1
EndSplineSet
EndChar
StartChar: uni04B4
Encoding: 1204 1204 41
Width: 912
Flags: HW
TeX: 0 0 0 0
HStem: -195 21G<811 875> -0 67<240 811> 628 66<5 564>
VStem: 240 89<-0 630> 711 89<67 694> 811 64<-195 67>
Fore
5 694 m 1
 564 694 l 1
 564 628 l 1
 329 630 l 1
 329 67 l 1
 711 67 l 1
 711 694 l 1
 800 694 l 1
 800 67 l 1
 875 67 l 1
 875 -195 l 1
 811 -195 l 1
 811 -0 l 1
 240 -0 l 1
 240 630 l 1
 5 628 l 1
 5 694 l 1
EndSplineSet
EndChar
StartChar: uni04E0
Encoding: 1248 1248 42
Width: 546
Flags: HW
TeX: 0 0 0 0
HStem: -22 64<204 338> 331 54<267 268> 613 81<41 510>
VStem: 41 78<156 163> 423 89<128.5 233>
Fore
41 694 m 1
 510 694 l 1
 510 613 l 1
 267 391 l 1
 267 385 l 1
 420 383 512 283 512 183 c 0
 512 74 409 -22 267 -22 c 0
 141 -22 53 37 41 156 c 1
 119 163 l 1
 132 53 224 42 268 42 c 0
 359 42 423 99 423 183 c 0
 423 232 396 310 298 325 c 0
 285.122 326.971 243.6 330 230 330 c 2
 172 330 l 1
 172 391 l 1
 415 613 l 1
 415 615 l 1
 41 613 l 1
 41 694 l 1
EndSplineSet
EndChar
StartChar: uni04E1
Encoding: 1249 1249 43
Width: 435
Flags: HW
TeX: 0 0 0 0
HStem: -205 64<165 267.5> 377 68<41 398>
VStem: 323 78<-59 42>
Fore
211 -141 m 0
 269 -141 323 -101 323 -8 c 0
 323 74 281 121 213 124 c 1
 131 124 l 1
 131 180 l 1
 316 375 l 1
 316 377 l 1
 41 375 l 1
 41 445 l 1
 398 445 l 1
 398 375 l 1
 220 187 l 1
 330 180 401 92 401 -8 c 0
 401 -110 324 -205 211 -205 c 0
 183 -205 108 -201 41 -124 c 1
 58 -58 l 1
 72 -76 119 -141 211 -141 c 0
EndSplineSet
EndChar
StartChar: uni04F6
Encoding: 1270 1270 44
Width: 542
Flags: MW
TeX: 0 0 0 0
HStem: -195 21G<192 256> 0 21<94 192> 628 66<94 499>
VStem: 94 90<0 694> 192 64<-195 62>
Fore
94 694 m 1
 499 694 l 1
 499 628 l 1
 184 630 l 1
 184 62 l 1
 256 62 l 1
 256 -195 l 1
 192 -195 l 1
 192 0 l 1
 94 0 l 1
 94 694 l 1
EndSplineSet
EndChar
StartChar: uni04F7
Encoding: 1271 1271 45
Width: 404
Flags: MW
TeX: 0 0 0 0
HStem: -162 21<161 225 161 161> 0 21<80 161> 385 60<80 379>
VStem: 80 78<0 445> 161 64<-162 61>
Fore
80 445 m 1
 379 445 l 1
 379 385 l 1
 158 386 l 1
 158 61 l 1
 225 61 l 1
 225 -162 l 1
 161 -162 l 1
 161 0 l 1
 80 0 l 1
 80 445 l 1
EndSplineSet
EndChar
StartChar: afii10042
Encoding: 1064 1064 46
Width: 1083
Flags: HW
TeX: 0 0 0 0
HStem: 0 67<180 496 582 902> 674 20G<94 180 496 582 902 988>
VStem: 94 86<67 694> 496 86<67 694> 902 86<67 694>
Fore
94 0 m 1
 94 694 l 1
 180 694 l 1
 180 67 l 1
 498 67 l 1
 498 694 l 1
 584 694 l 1
 584 67 l 1
 902 67 l 1
 902 694 l 1
 988 694 l 1
 988 0 l 1
 94 0 l 1
EndSplineSet
EndChar
StartChar: afii10043
Encoding: 1065 1065 47
Width: 1100
Flags: HW
TeX: 0 0 0 0
HStem: -195 21G<999 1063> 0 67<180 496 582 902 988 999> 674 20G<94 180 496 582 902 988>
VStem: 94 86<67 694> 496 86<67 694> 902 86<67 694> 999 64<-195 0>
Fore
94 0 m 1
 94 694 l 1
 180 694 l 1
 180 67 l 1
 498 67 l 1
 498 694 l 1
 584 694 l 1
 584 67 l 1
 902 67 l 1
 902 694 l 1
 988 694 l 1
 988 67 l 1
 1063 67 l 1
 1063 -195 l 1
 999 -195 l 1
 999 0 l 1
 94 0 l 1
EndSplineSet
EndChar
StartChar: afii10038
Encoding: 1060 1060 48
Width: 833
Flags: HW
TeX: 0 0 0 0
HStem: 0 21G<374 458> 105 61<286.9 374 458 545.1> 556 61<286.9 374 458 545.1>
VStem: 55 87<124.4 597.6> 374 84<0 105 166 556 617 694> 690 87<124.4 597.6>
CounterMasks: 1 00
Fore
55 361 m 0
 55 584 249 614 374 617 c 1
 374 694 l 1
 458 694 l 1
 458 617 l 1
 583 614 777 584 777 361 c 0
 777 138 583 108 458 105 c 1
 458 0 l 1
 374 0 l 1
 374 105 l 1
 249 108 55 138 55 361 c 0
142 361 m 0
 142 179 307 169 374 166 c 1
 374 556 l 1
 307 553 142 543 142 361 c 0
458 166 m 1
 525 169 690 179 690 361 c 0
 690 543 525 553 458 556 c 1
 458 166 l 1
EndSplineSet
EndChar
StartChar: afii10086
Encoding: 1092 1092 49
Width: 766
Flags: HMW
TeX: 0 0 0 0
HStem: -195 21<345 420 345 345> -11 62<159.4 296.3 468.7 606.6> 391 64<163.6 250.668 514.332 601.4> 722 -21
VStem: 35 78<92 355.9> 345 75<-195 45 78.3 352 403 722> 652 78<88.1 352>
CounterMasks: 1 07
Fore
35 222 m 0
 35 343 104 455 205 455 c 0
 236 455 290 448 345 403 c 1
 345 722 l 1
 420 722 l 1
 420 403 l 1
 475 448 529 455 560 455 c 0
 661 455 730 343 730 222 c 0
 730 94 652 -11 548 -11 c 0
 487 -11 445 21 420 45 c 1
 420 -195 l 1
 345 -195 l 1
 345 45 l 1
 320 21 278 -11 217 -11 c 0
 113 -11 35 94 35 222 c 0
113 222 m 0
 113 122 181 50 253 50 c 0
 300 50 345 90 345 129 c 2
 345 327 l 2
 345 352 302 391 252 391 c 0
 184 391 113 325 113 222 c 0
420 129 m 2
 420 90 466 51 513 51 c 0
 585 51 652 119 652 222 c 0
 652 322 581 391 513 391 c 0
 463 391 420 352 420 327 c 2
 420 129 l 2
EndSplineSet
EndChar
StartChar: afii10051
Encoding: 1026 1026 50
Width: 819
Flags: HW
TeX: 0 0 0 0
HStem: -22 61<511.267 665.5> 405 62<478.8 720.6> 630 64<35 295 384 644>
VStem: 295 89<0 287.405 378 630> 704 78<136.255 352>
Fore
35 628 m 1
 35 694 l 1
 644 694 l 1
 644 629 l 1
 384 630 l 1
 384 378 l 1
 405 401 465 467 587 467 c 0
 759 467 782 374 782 284 c 2
 782 196 l 2
 782 69.3039 699.6 -22 576 -22 c 0
 527 -22 500 -16 454 -0 c 1
 472 68 l 1
 502 52 524 39 581 39 c 0
 646 39 677 82 689 110 c 0
 703 140 704 173 704 206 c 2
 704 277 l 2
 704 352 678 405 536 405 c 0
 492 405 457 393 426 359 c 0
 390 319 384 275 384 234 c 2
 384 -0 l 1
 295 -0 l 1
 295 630 l 1
 35 628 l 1
EndSplineSet
EndChar
StartChar: afii10060
Encoding: 1035 1035 51
Width: 764
Flags: HW
TeX: 0 0 0 0
HStem: -0 21G<260 349 582 660> 394 61<410.8 510.9> 629 65<35 260 349 629>
VStem: 260 89<0 320.6 382 629> 582 78<0 320.828>
Fore
35 628 m 1
 35 694 l 1
 629 694 l 1
 629 629 l 1
 349 630 l 1
 349 382 l 1
 387 423 433 455 507 455 c 0
 656 455 660 347 660 284 c 2
 660 -0 l 1
 582 -0 l 1
 582 281 l 2
 582 315 579 343 557 365 c 0
 537 384 501 394 468 394 c 0
 373 394 349 302 349 240 c 2
 349 -0 l 1
 260 -0 l 1
 260 629 l 1
 35 628 l 1
EndSplineSet
EndChar
